<svg width="29" height="29" viewBox="0 0 29 29" fill="none" xmlns="http://www.w3.org/2000/svg">
<rect width="28.5482" height="28.5474" fill="url(#paint0_radial_339_1038)"/>
<path d="M10.5866 14.2737C10.5866 15.2527 10.7423 16.1956 11.0303 17.0789C9.5326 16.4699 8.24021 15.4604 7.28634 14.1831C8.26007 12.9472 9.55778 11.9786 11.0512 11.4053C10.7498 12.3067 10.5866 13.2713 10.5866 14.2737ZM5.16436 19.626C5.16436 20.6051 5.32004 21.548 5.60806 22.4312C2.38857 21.1223 0.118951 17.9629 0.118951 14.2737C0.118951 10.5237 2.46396 7.32115 5.76788 6.05298C5.46652 6.95437 5.30332 7.9189 5.30332 8.92132C5.30332 10.8823 5.92784 12.6978 6.9888 14.1793C5.84363 15.694 5.16436 17.5809 5.16436 19.626ZM11.4479 11.0138C12.0401 9.52928 13.0249 8.24363 14.2741 7.28531C15.5381 8.25497 16.5314 9.55975 17.1212 11.0666C16.2061 10.7549 15.225 10.5858 14.2046 10.5858C13.2435 10.5858 12.3171 10.7358 11.4479 11.0138ZM14.3436 17.9616C15.3048 17.9616 16.2311 17.8116 17.1004 17.5335C16.5082 19.0181 15.5234 20.3037 14.2741 21.2621C13.0101 20.2924 12.0168 18.9876 11.427 17.4808C12.3422 17.7925 13.3233 17.9616 14.3436 17.9616ZM8.92132 5.23341C7.96014 5.23341 7.03379 5.38346 6.16454 5.66148C7.46012 2.41371 10.634 0.118951 14.3436 0.118951C18.0732 0.118951 21.2614 2.4386 22.5435 5.71425C21.6283 5.40249 20.6473 5.23341 19.6269 5.23341C17.6238 5.23341 15.7726 5.885 14.2741 6.98775C12.7756 5.885 10.9244 5.23341 8.92132 5.23341ZM23.3839 8.92132C23.3839 7.94228 23.2282 6.99937 22.9402 6.11613C26.1597 7.42508 28.4293 10.5845 28.4293 14.2737C28.4293 18.0237 26.0843 21.2262 22.7804 22.4944C23.0817 21.593 23.2449 20.6285 23.2449 19.626C23.2449 17.665 22.6204 15.8496 21.5594 14.3681C22.7046 12.8533 23.3839 10.9665 23.3839 8.92132ZM22.3837 22.8859C21.0881 26.1337 17.9142 28.4284 14.2046 28.4284C10.475 28.4284 7.28684 26.1088 6.00473 22.8331C6.91991 23.1449 7.90098 23.314 8.92132 23.314C10.9242 23.314 12.7753 22.6625 14.2738 21.5599L14.2741 21.5602L14.2745 21.5599C15.7729 22.6625 17.624 23.314 19.6269 23.314C20.5881 23.314 21.5144 23.1639 22.3837 22.8859ZM17.497 17.142C17.7984 16.2406 17.9616 15.2761 17.9616 14.2737C17.9616 13.2946 17.8059 12.3517 17.5179 11.4685C19.0156 12.0774 20.308 13.087 21.2619 14.3643C20.2882 15.6002 18.9905 16.5688 17.497 17.142Z" stroke="#4A4A4A" stroke-width="0.237902"/>
<circle cx="14.2743" cy="14.2738" r="7.13706" fill="url(#paint1_radial_339_1038)"/>
<defs>
<radialGradient id="paint0_radial_339_1038" cx="0" cy="0" r="1" gradientUnits="userSpaceOnUse" gradientTransform="translate(14.2741 14.2737) rotate(90) scale(14.2737 14.2741)">
<stop stop-color="white"/>
<stop offset="1" stop-color="white" stop-opacity="0"/>
</radialGradient>
<radialGradient id="paint1_radial_339_1038" cx="0" cy="0" r="1" gradientUnits="userSpaceOnUse" gradientTransform="translate(14.2743 14.2738) rotate(90) scale(7.13706)">
<stop stop-color="#6DD3FF" stop-opacity="0.21"/>
<stop offset="1" stop-color="white"/>
</radialGradient>
</defs>
</svg>
